HIERARCHY
ROOT SpineBase
{
  OFFSET 0.000000 0.000000 0.000000
  CHANNELS 6 Xposition Yposition Zposition Zrotation Xrotation Yrotation
  JOINT SpineMid
  {
    OFFSET 0.000000 31.607809 0.000000
    CHANNELS 3 Zrotation Xrotation Yrotation
    JOINT SpineShoulder
    {
      OFFSET 0.011809 23.580436 -0.867929
      CHANNELS 3 Zrotation Xrotation Yrotation
      JOINT Neck
      {
        OFFSET 0.013749 7.802248 -0.569926
        CHANNELS 3 Zrotation Xrotation Yrotation
        JOINT Head
        {
          OFFSET -5.512565 11.817387 3.538036
          CHANNELS 3 Zrotation Xrotation Yrotation
          End Site
          {
            OFFSET 0 0 0
          }
        }
      }
      JOINT ShoulderLeft
      {
        OFFSET -8.500008 -4.239232 13.192815
        CHANNELS 3 Zrotation Xrotation Yrotation
        JOINT ElbowLeft
        {
          OFFSET -1.750873 -27.293060 7.534284
          CHANNELS 3 Zrotation Xrotation Yrotation
          JOINT WristLeft
          {
            OFFSET 0.133914 -28.556422 2.044536
            CHANNELS 3 Zrotation Xrotation Yrotation
            JOINT HandLeft
            {
              OFFSET -0.146204 -4.778680 0.700055
              CHANNELS 3 Zrotation Xrotation Yrotation
              JOINT HandTipLeft
              {
                OFFSET 1.120178 -4.323729 -0.705369
                CHANNELS 3 Zrotation Xrotation Yrotation
                End Site
                {
                  OFFSET 0 0 0
                }
              }
              JOINT ThumbLeft
              {
                OFFSET 1.945239 -0.800044 -2.140492
                CHANNELS 3 Zrotation Xrotation Yrotation
                End Site
                {
                  OFFSET 0 0 0
                }
              }
            }
          }
        }
      }
      JOINT ShoulderRight
      {
        OFFSET 8.250975 -4.744960 -12.467184
        CHANNELS 3 Zrotation Xrotation Yrotation
        JOINT ElbowRight
        {
          OFFSET 5.937986 -26.939599 -7.112192
          CHANNELS 3 Zrotation Xrotation Yrotation
          JOINT WristRight
          {
            OFFSET -4.013692 -20.238528 -5.457836
            CHANNELS 3 Zrotation Xrotation Yrotation
            JOINT HandRight
            {
              OFFSET -0.785680 -3.299493 1.183065
              CHANNELS 3 Zrotation Xrotation Yrotation
              JOINT HandTipRight
              {
                OFFSET -1.787259 -7.701827 0.395940
                CHANNELS 3 Zrotation Xrotation Yrotation
                End Site
                {
                  OFFSET 0 0 0
                }
              }
              JOINT ThumbRight
              {
                OFFSET -3.568677 4.665135 -3.223761
                CHANNELS 3 Zrotation Xrotation Yrotation
                End Site
                {
                  OFFSET 0 0 0
                }
              }
            }
          }
        }
      }
    }
  }
  JOINT HipLeft
  {
    OFFSET -4.028060 0.549807 1.716397
    CHANNELS 3 Zrotation Xrotation Yrotation
    JOINT KneeLeft
    {
      OFFSET 5.179493 -36.968481 5.324931
      CHANNELS 3 Zrotation Xrotation Yrotation
      JOINT AnkleLeft
      {
        OFFSET 15.896713 -37.509101 7.435252
        CHANNELS 3 Zrotation Xrotation Yrotation
        JOINT FootLeft
        {
          OFFSET -3.910204 -7.480947 -1.931108
          CHANNELS 3 Zrotation Xrotation Yrotation
          End Site
          {
            OFFSET 0 0 0
          }
        }
      }
    }
  }
  JOINT HipRight
  {
    OFFSET 3.603067 1.012508 -9.057738
    CHANNELS 3 Zrotation Xrotation Yrotation
    JOINT KneeRight
    {
      OFFSET 9.496589 -35.833927 -1.181156
      CHANNELS 3 Zrotation Xrotation Yrotation
      JOINT AnkleRight
      {
        OFFSET 9.920380 -36.235508 4.172945
        CHANNELS 3 Zrotation Xrotation Yrotation
        JOINT FootRight
        {
          OFFSET -3.206789 -7.800999 -3.595240
          CHANNELS 3 Zrotation Xrotation Yrotation
          End Site
          {
            OFFSET 0 0 0
          }
        }
      }
    }
  }
}
MOTION
Frames: 15
Frame Time: 0.033333
23.292820 82.393886 344.933764 8.454790 8.134768 16.583617 0.209911 0.629938 -16.927729 -0.185146 -0.040681 0.272350 -9.937377 17.132911 10.985113 0.000000 0.000000 0.000000 -62.969569 82.075353 29.033709 -25.490640 14.465833 -8.212059 4.370484 4.075919 -3.372336 -37.400467 3.226587 48.225003 0.000000 0.000000 0.000000 0.000000 0.000000 0.000000 -65.814478 -13.125573 2.349238 -15.213391 -14.749569 -0.768256 -15.948632 -8.988563 -45.632122 8.208024 -0.798382 15.884473 0.000000 0.000000 0.000000 0.000000 0.000000 0.000000 -8.770035 16.464976 -15.480711 9.037959 -23.982638 0.071341 7.481185 -43.348825 31.557830 0.000000 0.000000 0.000000 -15.058426 3.578165 -15.603559 6.844500 -7.285883 -1.699580 5.126377 -0.037834 -2.390942 0.000000 0.000000 0.000000
23.407098 82.102068 345.001510 8.203041 8.439909 0.958403 0.110104 0.771583 -1.313739 -0.085099 -0.130532 0.286768 -10.927096 16.681901 11.324528 0.000000 0.000000 0.000000 -74.348989 83.221929 39.855458 -22.721756 9.316740 -7.498573 4.169412 4.033815 -3.357384 -40.812647 3.647039 39.519067 0.000000 0.000000 0.000000 0.000000 0.000000 0.000000 -62.872328 -14.429395 0.791452 -6.367010 -16.044693 -1.562364 -12.658306 -20.661820 -39.388924 -1.405501 10.115316 17.225164 0.000000 0.000000 0.000000 0.000000 0.000000 0.000000 -8.374400 7.717465 0.040721 2.908520 -17.762716 -1.518031 -11.910155 -41.081214 23.871912 0.000000 0.000000 0.000000 -15.358245 0.168268 -0.238196 7.768018 -7.897685 -1.577575 3.044051 -4.364787 -0.239514 0.000000 0.000000 0.000000
23.418773 82.077743 345.335367 7.945729 8.427413 2.705830 0.201059 0.852961 -3.048917 0.005125 -0.052386 0.287797 -9.980961 17.679880 11.512390 0.000000 0.000000 0.000000 -59.219831 81.379513 25.147527 -18.907528 3.060523 -5.086028 1.362234 5.020242 -6.376408 -45.599247 2.067179 26.246812 0.000000 0.000000 0.000000 0.000000 0.000000 0.000000 -61.291709 -14.900293 0.232599 -0.906312 -18.068822 -2.718206 -7.150904 -24.427728 -32.625454 -3.874789 14.784748 14.759702 0.000000 0.000000 0.000000 0.000000 0.000000 0.000000 -3.455606 2.620019 -1.484199 -3.529254 -11.609990 -2.500424 -28.384403 -32.125341 16.314331 0.000000 0.000000 0.000000 -15.497444 0.706941 -1.876564 8.515304 -7.559241 -1.376683 7.844413 -16.334295 3.533061 0.000000 0.000000 0.000000
23.266801 82.359822 345.923964 7.688746 8.318136 16.708626 0.430661 0.886510 -17.042665 0.105617 0.088071 0.283861 -9.486170 18.048019 11.616173 0.000000 0.000000 0.000000 -57.572488 81.219050 23.778210 -18.315004 3.570114 -4.076141 1.354281 3.452951 -7.219600 -46.333128 6.510441 35.568150 0.000000 0.000000 0.000000 0.000000 0.000000 0.000000 -60.229090 -14.798878 0.226341 0.955390 -20.335131 -3.664255 -2.831668 -19.327789 -28.022720 -3.003639 12.126230 12.426795 0.000000 0.000000 0.000000 0.000000 0.000000 0.000000 0.593948 -2.072607 -14.864861 -9.100233 -6.160795 -2.676925 -36.652714 -20.086751 12.092034 0.000000 0.000000 0.000000 -15.249350 3.995683 -15.525372 9.489961 -6.314441 -0.968002 7.588949 -23.934247 7.386874 0.000000 0.000000 0.000000
22.986017 82.853869 346.646729 7.359043 7.981775 36.996482 0.661294 0.819806 -37.313921 0.049357 0.159859 0.254377 -8.078173 18.783229 11.585930 0.000000 0.000000 0.000000 -53.370871 79.530838 19.618189 -19.925166 5.237841 -4.773475 1.828401 3.670897 -6.531971 -45.788567 5.591444 36.344892 0.000000 0.000000 0.000000 0.000000 0.000000 0.000000 -59.005139 -14.201310 0.836942 -1.364587 -21.823872 -4.033634 -1.936384 -16.862738 -28.366427 -3.508670 11.507778 12.971982 0.000000 0.000000 0.000000 0.000000 0.000000 0.000000 1.355059 -6.859518 -34.508583 -15.325422 -1.424287 -2.670760 -36.465852 -10.416554 9.574253 0.000000 0.000000 0.000000 -13.680006 8.495018 -35.489266 10.787846 -4.512901 -0.448107 1.431608 -26.299638 9.338912 0.000000 0.000000 0.000000
22.682781 83.471912 347.466489 7.012577 7.483494 52.247266 0.776736 0.773517 -52.539231 -0.022537 0.167832 0.225488 -6.762006 20.051799 11.748969 0.000000 0.000000 0.000000 -54.189285 79.270515 20.817512 -20.028569 5.150093 -4.749079 1.826417 3.645238 -6.515682 -45.989797 5.705234 36.881216 0.000000 0.000000 0.000000 0.000000 0.000000 0.000000 -57.641967 -14.065747 1.170797 -1.803700 -23.090789 -4.207611 -5.443799 -15.357205 -28.468830 2.636235 13.866323 11.213147 0.000000 0.000000 0.000000 0.000000 0.000000 0.000000 0.368448 -10.608440 -49.332671 -20.551928 2.663047 -2.093098 -33.081064 -5.224007 7.098544 0.000000 0.000000 0.000000 -11.606864 11.493737 -50.725207 11.937852 -2.733943 0.007253 -9.278949 -23.116947 9.212493 0.000000 0.000000 0.000000
22.355161 84.145508 348.284590 6.691270 6.874876 61.605263 0.776840 0.781376 -61.863713 -0.118509 0.131521 0.197262 -5.927139 21.495889 12.088273 0.000000 0.000000 0.000000 -56.397696 79.493546 23.639425 -20.016916 5.095932 -4.720700 1.826880 3.638937 -6.498118 -46.152230 5.800704 36.926161 0.000000 0.000000 0.000000 0.000000 0.000000 0.000000 -56.658606 -13.648615 1.832285 -2.147479 -22.417104 -3.932886 -9.115621 -16.206767 -29.691312 5.694181 18.120365 11.056805 0.000000 0.000000 0.000000 0.000000 0.000000 0.000000 -0.548669 -12.529309 -58.511161 -24.359207 5.224672 -1.593130 -26.263792 -2.333426 4.631101 0.000000 0.000000 0.000000 -9.966262 13.013509 -60.216738 12.734914 -1.192369 0.345697 -20.795652 -14.569934 8.458611 0.000000 0.000000 0.000000
22.044388 84.775649 349.011633 6.411993 6.350573 66.664021 0.848438 0.838595 -66.896841 -0.183436 0.139608 0.175029 -5.611043 21.988805 12.244417 0.000000 0.000000 0.000000 -57.536393 79.840004 25.577079 -19.879219 5.107311 -4.689871 1.830251 3.648633 -6.449136 -46.414979 6.061228 36.506796 0.000000 0.000000 0.000000 0.000000 0.000000 0.000000 -56.273553 -13.177087 2.466251 -3.274876 -22.091304 -3.894709 -6.650957 -15.048619 -29.927623 5.692465 19.388707 10.951299 0.000000 0.000000 0.000000 0.000000 0.000000 0.000000 -1.194575 -12.681911 -63.665039 -26.786320 8.717584 -0.185296 -21.865174 -8.033891 2.652949 0.000000 0.000000 0.000000 -8.903024 13.684102 -65.394109 13.327732 -0.231100 0.551944 -29.487077 -3.528670 8.286489 0.000000 0.000000 0.000000
21.750344 85.256707 349.598578 6.146582 5.993269 69.214199 0.868849 0.881608 -69.427132 -0.239923 0.107515 0.157755 -5.670963 22.047442 12.383121 0.000000 0.000000 0.000000 -60.200574 80.382985 28.821178 -19.620503 4.956253 -4.584243 1.833429 3.667976 -6.421232 -46.527490 6.190733 35.931815 0.000000 0.000000 0.000000 0.000000 0.000000 0.000000 -55.221756 -12.698986 2.970421 -4.733205 -20.880493 -3.330950 -6.381568 -16.532560 -31.168733 5.186749 20.176744 11.355344 0.000000 0.000000 0.000000 0.000000 0.000000 0.000000 0.177988 -10.991117 -66.118664 -23.681931 5.530890 -1.227614 -19.995787 -10.063059 3.517487 0.000000 0.000000 0.000000 -7.963924 13.829532 -68.003517 13.477410 -0.098052 0.596515 -33.965653 7.216425 8.212843 0.000000 0.000000 0.000000
21.575778 85.492299 349.984086 5.884938 5.784791 70.285904 0.721998 0.924331 -70.482155 -0.323141 -0.009336 0.139973 -5.283703 22.537410 12.503491 0.000000 0.000000 0.000000 -65.481990 81.131555 34.619098 -19.307228 4.728051 -4.448268 1.837262 3.697846 -6.422624 -46.456323 6.125261 35.180065 0.000000 0.000000 0.000000 0.000000 0.000000 0.000000 -55.002156 -11.021798 4.550967 -8.147053 -21.778044 -4.334755 -4.936069 -16.509854 -33.086940 4.951599 19.401418 11.806187 0.000000 0.000000 0.000000 0.000000 0.000000 0.000000 1.396998 -10.909748 -66.942433 -25.107291 6.599543 -0.895717 -15.829263 -15.072882 2.856783 0.000000 0.000000 0.000000 -7.140116 13.766883 -69.073770 13.476130 -0.550581 0.540748 -39.319098 14.959110 9.833767 0.000000 0.000000 0.000000
21.540982 85.393721 350.071932 5.712997 5.851263 69.563814 0.674614 0.884683 -69.753842 -0.304032 -0.060114 0.139620 -5.291086 22.081158 12.365595 0.000000 0.000000 0.000000 -71.142798 81.833222 40.352187 -18.930001 4.429766 -4.274115 1.841386 3.738201 -6.447133 -46.229093 5.911013 34.259379 0.000000 0.000000 0.000000 0.000000 0.000000 0.000000 -55.821699 -8.465058 6.734927 -13.171085 -22.046251 -6.140873 -4.042396 -21.754666 -37.767525 0.428651 19.715497 14.320131 0.000000 0.000000 0.000000 0.000000 0.000000 0.000000 1.021969 -11.447219 -66.255651 -28.902824 11.273146 1.007335 -10.868020 -20.451573 1.214663 0.000000 0.000000 0.000000 -6.877358 13.761156 -68.270094 13.787182 -1.205772 0.490459 -39.704676 14.784611 10.020481 0.000000 0.000000 0.000000
21.549592 84.879458 349.911254 5.509484 6.141160 65.953411 0.711342 0.716272 -66.133029 -0.190717 -0.074325 0.155526 -5.754975 21.572666 12.380707 0.000000 0.000000 0.000000 -76.867059 82.466439 45.837262 -18.530816 4.109544 -4.079813 1.846038 3.784719 -6.486030 -45.890567 5.600101 33.271256 0.000000 0.000000 0.000000 0.000000 0.000000 0.000000 -57.131009 -5.630025 9.066779 -21.790357 -22.513149 -8.825275 -0.670031 -23.060890 -43.208356 -2.171815 13.034366 15.781932 0.000000 0.000000 0.000000 0.000000 0.000000 0.000000 0.078885 -12.405118 -62.837845 -38.603947 20.346949 6.201580 6.294501 -33.475586 1.910328 0.000000 0.000000 0.000000 -6.854843 13.527997 -64.437762 13.922495 -2.533401 0.361948 -38.564160 13.844110 9.589371 0.000000 0.000000 0.000000
21.486812 84.754432 349.980289 5.496817 6.341750 65.758436 0.937912 0.478320 -65.924094 -0.018267 0.031019 0.184620 -8.140057 20.726238 12.953273 0.000000 0.000000 0.000000 -81.872974 83.025118 50.329944 -18.162642 3.836189 -3.901474 1.850172 3.828680 -6.520251 -45.522002 5.329722 32.415628 0.000000 0.000000 0.000000 0.000000 0.000000 0.000000 -60.437338 -1.825726 12.571664 -32.822926 -23.042721 -14.346193 2.695707 -22.848993 -50.068271 -4.413966 5.402030 17.361858 0.000000 0.000000 0.000000 0.000000 0.000000 0.000000 -0.284998 -12.534202 -62.694736 -56.011008 30.496998 16.517602 42.611074 -51.607609 16.936655 0.000000 0.000000 0.000000 -7.119906 13.378835 -64.257324 13.946482 -2.446488 0.381183 -35.392393 10.034129 8.523122 0.000000 0.000000 0.000000
21.451528 84.578572 350.065469 5.552166 6.598956 63.958017 1.136395 0.327391 -64.118736 0.127274 0.050934 0.214942 -10.318916 19.802590 13.364859 0.000000 0.000000 0.000000 -83.969357 83.166410 51.653806 -16.418571 0.611155 -3.125796 0.965249 6.039030 -6.337728 -41.731545 5.866672 36.438392 0.000000 0.000000 0.000000 0.000000 0.000000 0.000000 -65.198619 2.615971 17.379090 -44.261484 -21.349119 -21.595586 1.989878 -24.639970 -60.187214 -7.460510 1.032607 20.543359 0.000000 0.000000 0.000000 0.000000 0.000000 0.000000 -0.511182 -12.712857 -60.945342 -81.440992 37.485240 34.121742 108.978190 -53.243940 61.427809 0.000000 0.000000 0.000000 -7.566555 13.219457 -62.398015 13.937939 -2.617129 0.373590 -37.285641 10.209502 9.297061 0.000000 0.000000 0.000000
21.465242 84.396284 350.126238 5.750142 6.863684 60.781354 1.321236 0.199724 -60.938965 0.271966 0.028928 0.253876 -13.225028 19.478765 14.243990 0.000000 0.000000 0.000000 -84.863411 83.425748 51.982675 -17.495365 1.861882 -4.056420 1.593611 4.390468 -6.487735 -50.682835 3.311469 18.942117 0.000000 0.000000 0.000000 0.000000 0.000000 0.000000 -70.740517 7.136300 23.042013 -56.962537 -16.408178 -28.786386 3.609588 -22.274566 -69.908824 -6.044314 -4.963194 20.833874 0.000000 0.000000 0.000000 0.000000 0.000000 0.000000 -1.001005 -13.051566 -57.918377 -105.961639 37.729256 53.369618 149.311575 -33.340796 84.506631 0.000000 0.000000 0.000000 -8.374654 13.212458 -59.102374 14.221671 -2.951514 0.371682 -36.049098 10.243146 8.614486 0.000000 0.000000 0.000000
